<svg width="51.123" height="36.525" viewBox="0 0 51.123 36.525" xmlns="http://www.w3.org/2000/svg">
    <g id="svgGroup" stroke-linecap="round" fill-rule="evenodd" font-size="9pt" stroke="#000" stroke-width="0.25mm" fill="black">
        <path d="M 23.047 18.336 L 23.047 31.617 L 22.266 32.593 Q 18.969 36.44 12.68 36.522 A 21.128 21.128 0 0 1 12.403 36.524 A 13.96 13.96 0 0 1 8.468 35.998 A 10.488 10.488 0 0 1 3.357 32.703 A 12.763 12.763 0 0 1 0.903 28.176 Q 0.038 25.446 0 21.9 L 0 14.918 Q 0 10.278 1.154 7.084 A 11.613 11.613 0 0 1 2.991 3.724 Q 5.982 0.001 11.939 0.001 A 14.684 14.684 0 0 1 15.169 0.335 Q 17.466 0.853 19.138 2.172 A 8.983 8.983 0 0 1 19.886 2.833 A 9.924 9.924 0 0 1 22.298 6.783 Q 22.803 8.273 22.982 10.069 A 19.373 19.373 0 0 1 23.047 10.914 L 18.579 10.914 Q 18.311 7.593 16.736 5.726 Q 15.277 3.995 12.424 3.868 A 10.36 10.36 0 0 0 11.963 3.858 A 9.237 9.237 0 0 0 9.78 4.099 A 5.711 5.711 0 0 0 6.348 6.36 A 7.92 7.92 0 0 0 5.334 8.407 Q 4.652 10.403 4.521 13.362 A 31.993 31.993 0 0 0 4.493 14.356 L 4.493 21.607 A 22.578 22.578 0 0 0 4.692 24.711 Q 5.131 27.872 6.543 29.847 A 6.595 6.595 0 0 0 11.37 32.657 A 9.305 9.305 0 0 0 12.427 32.715 Q 16.04 32.715 17.92 30.958 L 18.579 30.347 L 18.579 22.144 L 12.085 22.144 L 12.085 18.336 L 23.047 18.336 Z 
        M 51.123 0.489 L 51.123 4.346 L 41.773 4.346 L 41.773 36.036 L 37.305 36.036 L 37.305 4.346 L 27.979 4.346 L 27.979 0.489 L 51.123 0.489 Z" 
        vector-effect="non-scaling-stroke"/>
    </g>
</svg>
