<svg width="33.741" height="24.106" viewBox="0 0 33.741 24.106" xmlns="http://www.w3.org/2000/svg"><g id="svgGroup" stroke-linecap="round" fill-rule="evenodd" font-size="9pt" stroke="#000" stroke-width="0.25mm" fill="black"><path d="M 15.211 12.101 L 15.211 20.867 L 14.696 21.512 Q 12.52 24.05 8.369 24.105 A 13.948 13.948 0 0 1 8.186 24.106 A 9.214 9.214 0 0 1 5.589 23.759 A 6.922 6.922 0 0 1 2.216 21.584 A 8.424 8.424 0 0 1 0.596 18.596 Q 0.203 17.357 0.069 15.864 A 17.843 17.843 0 0 1 0 14.454 L 0 9.846 Q 0 6.784 0.761 4.676 A 7.664 7.664 0 0 1 1.974 2.458 A 6.332 6.332 0 0 1 5.562 0.252 A 10 10 0 0 1 7.88 0 A 9.691 9.691 0 0 1 10.012 0.221 Q 11.528 0.563 12.631 1.434 A 5.929 5.929 0 0 1 13.125 1.87 Q 14.863 3.585 15.168 6.645 A 12.786 12.786 0 0 1 15.211 7.203 L 12.262 7.203 A 8.405 8.405 0 0 0 12.039 5.81 Q 11.844 5.046 11.505 4.444 A 4.307 4.307 0 0 0 11.046 3.779 A 3.295 3.295 0 0 0 9.385 2.735 Q 8.847 2.582 8.2 2.553 A 6.838 6.838 0 0 0 7.896 2.546 A 6.097 6.097 0 0 0 6.455 2.706 A 3.77 3.77 0 0 0 4.19 4.198 Q 3.013 5.849 2.965 9.475 L 2.965 14.261 A 14.901 14.901 0 0 0 3.096 16.309 Q 3.24 17.344 3.542 18.186 A 6.155 6.155 0 0 0 4.319 19.699 A 4.353 4.353 0 0 0 7.504 21.554 A 6.142 6.142 0 0 0 8.202 21.592 A 7.844 7.844 0 0 0 9.581 21.479 Q 10.343 21.343 10.943 21.042 A 3.724 3.724 0 0 0 11.827 20.432 L 12.262 20.029 L 12.262 14.615 L 7.976 14.615 L 7.976 12.101 L 15.211 12.101 Z M 33.741 0.323 L 33.741 2.869 L 27.57 2.869 L 27.57 23.784 L 24.621 23.784 L 24.621 2.869 L 18.466 2.869 L 18.466 0.323 L 33.741 0.323 Z" vector-effect="non-scaling-stroke"/></g></svg>